<svg width="480" height="264" viewBox="0 0 480 264" fill="none" xmlns="http://www.w3.org/2000/svg">
<path opacity="0.5" d="M480.218 264.642C480.185 264.71 480.134 264.777 480.1 264.845C479.83 265.334 479.543 265.824 479.257 266.33L37.5256 266.195C37.5256 266.195 37.1037 265.723 36.3275 264.794C36.2769 264.744 36.2431 264.693 36.1925 264.625C34.2182 262.262 30.2528 257.266 25.5955 250.244C13.2606 231.576 -3.83294 198.526 -0.947464 161.847C-0.137506 151.5 2.25862 140.849 6.81464 130.164C20.6177 97.739 61.7737 75.8802 98.863 75.4413C113.223 75.2725 126.958 78.3108 138.264 85.1807C140.272 86.396 142.786 87.3413 145.722 87.9827C148.186 88.5229 150.953 88.8604 153.957 88.9617C178.036 89.8057 217.218 76.2347 240.454 42.0708C252.789 23.9255 271.738 12.0592 293.506 5.86451C294.519 5.57756 295.548 5.30749 296.56 5.03742C301.504 3.77146 306.6 2.77558 311.764 2.08353C312.692 1.96537 313.637 1.84721 314.565 1.72906C337.531 -0.937886 362.133 1.81345 384.711 9.44293C387.681 10.4388 390.617 11.536 393.519 12.7007C435.991 29.9007 469.031 65.0267 466.128 114.078C466.01 116.019 465.842 117.977 465.605 119.969C465.167 123.75 464.525 127.599 463.665 131.532C463.159 133.844 462.568 136.19 461.893 138.57C444.395 200.771 514.355 203.573 480.218 264.642Z" fill="#DCEAFF"/>
<path d="M480.218 264.642L136.391 264.676L139.361 161.88V133.979H152.219V112.154H177.868V130.67H185.697V96.439H187.401V94.0422H187.705V96.439H193.898V94.0422H194.202V96.439H202.959V94.0422H203.263V96.439H208.781V94.0422H209.085V96.439H211.346V128.409H220.002V123.227L230.211 123.277V114.905H232.27V113.251H232.54V114.905H240.42H241.989V113.251H242.259V114.905H244.166V131.565H256.315V137.692H263.082V134.131H269.342V120.003H272.464V113.403H272.936V120.003H280.429V107.647H281.171V120.003H286.132V119.834V118.264V116.779V114.314V112.745V110.28V108.71V106.246V104.541V102.077V99.8993V97.4349V95.7976H287.6V93.9578H287.836V95.7976H298.771V93.9578H299.007V95.7976H300.998V108.71H302.399H302.382V106.246H302.399V104.541H302.382V102.077H302.399V100.372H302.382V97.9075H302.399H315.662H317.94C318.058 97.9751 318.176 98.0426 318.294 98.1101V114.584H320.741V112.204H348.752V130.721H357.307V96.439H359.163V94.0422H359.501V96.439H366.25V94.0422H366.588V96.439H376.155V94.0422H376.493V96.439H382.517V94.0422H382.854V96.439H385.335V128.409H394.784V123.227L405.921 123.277V114.905H408.166V113.251H408.469V114.905H417.075H418.796V113.251H419.1V114.905H421.176V131.565H434.439V137.692H441.813V134.131H448.647V120.003H452.055V113.403H452.578V120.003H460.762V107.647H461.572V120.003H465.588C465.15 123.784 464.508 127.632 463.648 131.565C463.142 133.878 462.551 136.224 461.876 138.604C444.394 200.771 514.354 203.573 480.218 264.642Z" fill="#DFEBFA"/>
<path d="M393.519 12.7341V264.659H384.71V9.45947C387.697 10.4722 390.633 11.5525 393.519 12.7341Z" fill="#AFCDFB"/>
<path d="M145.722 87.9994V264.811H36.3275C36.2769 264.76 36.2431 264.71 36.1925 264.642C34.2182 262.279 30.2528 257.283 25.5955 250.261C13.2606 231.592 -3.83294 198.543 -0.947464 161.864C-0.137506 151.517 2.25862 140.866 6.81464 130.181C20.6177 97.7388 61.7737 75.88 98.863 75.4412C113.088 75.5931 126.638 78.6651 137.893 85.1806C140.002 86.4128 142.651 87.358 145.722 87.9994Z" fill="#CEE1FD"/>
<path d="M314.582 1.74561V32.7699C314.582 35.1837 313.991 37.1586 313.265 37.1586H313.08C312.354 37.1586 311.764 35.1837 311.764 32.7699V2.10007C312.709 1.96504 313.637 1.84688 314.582 1.74561Z" fill="#9FC1F4"/>
<path d="M312.439 29.698C302.213 29.698 293.928 38.4584 293.928 49.2781H330.95C330.95 38.4584 322.664 29.698 312.439 29.698Z" fill="#FFC864"/>
<path d="M313.924 29.9342C313.384 29.816 312.844 29.7654 312.304 29.7654C305.639 29.7654 300.239 38.5089 300.239 49.278H303.496C303.479 39.3866 308.035 31.217 313.924 29.9342Z" fill="#FFDD90"/>
<path d="M434.337 235.778C434.337 235.778 429.41 230.023 434.034 226.377C434.034 226.377 437.409 224.334 440.159 224.503C440.159 224.503 436.261 231.052 437.527 231.694C438.792 232.352 441.34 224.098 441.34 224.098C441.34 224.098 449.018 223.355 451.498 224.537C451.498 224.537 444.934 229.904 446.318 230.225C447.702 230.546 454.789 225.263 454.789 225.263C454.789 225.263 461.944 226.478 461.555 230.85C461.167 235.205 458.704 236.555 457.624 236.437C456.544 236.319 450.199 233.905 450.064 234.783C449.929 235.66 453.743 238.564 456.409 238.699C456.409 238.699 451.363 244.252 448.022 242.648C444.664 241.045 444.394 238.496 442.302 237.551C440.21 236.589 438.438 236.606 439.298 237.568C440.159 238.547 443.939 239.492 445.137 241.602C446.335 243.712 447.398 245.147 443.939 244.623C440.48 244.1 434.844 241.568 434.591 238.665C434.337 235.778 434.337 235.778 434.337 235.778Z" fill="#58C65C"/>
<path d="M458.046 230.968C458.046 230.968 438.624 230.225 434.338 235.778C434.338 235.778 433.393 238.614 430.473 241.214L430.018 242.446C430.018 242.446 433.376 238.901 434.591 238.682C434.574 238.682 432.701 231.795 458.046 230.968Z" fill="#58C65C"/>
<path d="M430.457 241.197C430.457 241.197 426.289 244.286 426.002 249.788L426.761 249.856C426.761 249.856 428.094 244.151 430.49 241.923C432.903 239.711 430.457 241.197 430.457 241.197Z" fill="#58C65C"/>
<path d="M417.109 228.554C417.109 228.554 424.939 224.165 421.294 218.207C421.294 218.207 418.375 214.544 415.236 213.616C415.236 213.616 416.907 222.494 415.236 222.714C413.566 222.916 414.089 212.687 414.089 212.687C414.089 212.687 405.837 208.721 402.598 209.025C402.598 209.025 407.71 217.701 406.04 217.481C404.369 217.262 398.615 208.501 398.615 208.501C398.615 208.501 390.161 206.932 388.795 211.945C387.445 216.958 389.638 219.473 390.887 219.777C392.136 220.098 400.185 219.979 399.982 221.026C399.78 222.072 394.346 223.743 391.309 222.798C391.309 222.798 394.65 231.052 399.037 230.63C403.424 230.208 404.791 227.491 407.491 227.288C410.208 227.086 412.199 227.811 410.832 228.537C409.482 229.263 404.876 228.774 402.682 230.647C400.488 232.521 398.717 233.669 402.783 234.496C406.85 235.34 414.173 234.816 415.624 231.677C417.109 228.554 417.109 228.554 417.109 228.554Z" fill="#58C65C"/>
<path d="M392.658 213.498C392.658 213.498 414.595 220.604 417.109 228.537C417.109 228.537 417.008 232.082 419.201 236.167V237.736C419.201 237.736 416.907 232.403 415.658 231.677C415.641 231.677 420.551 224.79 392.658 213.498Z" fill="#58C65C"/>
<path d="M419.202 236.167C419.202 236.167 422.576 241.298 420.653 247.56L419.775 247.324C419.775 247.324 420.619 240.437 418.847 236.96C417.092 233.516 419.202 236.167 419.202 236.167Z" fill="#58C65C"/>
<path d="M429.579 222.494C429.579 222.494 419.252 216.705 424.078 208.856C424.078 208.856 427.942 204.028 432.06 202.796C432.06 202.796 429.849 214.51 432.06 214.78C434.27 215.051 433.578 201.564 433.578 201.564C433.578 201.564 444.462 196.331 448.731 196.736C448.731 196.736 441.982 208.164 444.192 207.894C446.403 207.624 453.962 196.044 453.962 196.044C453.962 196.044 465.116 193.985 466.905 200.585C468.693 207.202 465.808 210.51 464.154 210.915C462.501 211.32 451.904 211.185 452.174 212.569C452.444 213.953 459.615 216.148 463.597 214.916C463.597 214.916 459.193 225.803 453.405 225.246C447.618 224.689 445.829 221.11 442.252 220.84C438.674 220.57 436.059 221.532 437.848 222.494C439.636 223.456 445.694 222.815 448.596 225.263C451.499 227.71 453.827 229.229 448.461 230.343C443.095 231.44 433.443 230.748 431.52 226.63C429.596 222.511 429.579 222.494 429.579 222.494Z" fill="#84DF88"/>
<path d="M461.792 202.661C461.792 202.661 432.869 212.029 429.562 222.494C429.562 222.494 429.697 227.17 426.812 232.554V234.614C426.812 234.614 429.849 227.592 431.486 226.63C431.503 226.63 425.023 217.532 461.792 202.661Z" fill="#84DF88"/>
<path d="M426.829 232.554C426.829 232.554 422.374 239.323 424.905 247.577L426.052 247.273C426.052 247.273 424.939 238.192 427.267 233.618C429.596 229.044 426.829 232.554 426.829 232.554Z" fill="#84DF88"/>
<path d="M429.225 265.452C440.396 265.452 449.457 256.388 449.457 245.214H408.993C408.993 256.388 418.054 265.452 429.225 265.452Z" fill="#9FC1F4"/>
<path d="M434.203 265.3C433.376 265.402 432.549 265.452 431.688 265.452C420.518 265.452 411.456 256.388 411.456 245.214H416.485C416.485 255.544 424.213 264.051 434.203 265.3Z" fill="#AFCDFB"/>
<path d="M449.93 245.214H408.335V245.839H449.93V245.214Z" fill="#9FC1F4"/>
<path d="M335.05 264.457L315.172 181.916L316.556 178.676L336.248 264.457C336.299 264.676 336.13 264.879 335.91 264.879H335.59C335.32 264.879 335.101 264.71 335.05 264.457Z" fill="#77A4E5"/>
<path d="M245.33 264.879C244.925 264.879 244.605 264.507 244.672 264.102L250.528 228.605H253.042L246.056 264.271C245.989 264.625 245.685 264.879 245.33 264.879Z" fill="#77A4E5"/>
<path d="M301.488 264.879C301.083 264.879 300.762 264.507 300.83 264.102L306.685 228.605H309.199L302.213 264.271C302.146 264.625 301.842 264.879 301.488 264.879Z" fill="#77A4E5"/>
<path d="M315.105 228.689H245.178L259.673 137.827H329.6L315.105 228.689Z" fill="#F5FBFF"/>
<path d="M320.336 227.98H240.032V230.647H320.336V227.98Z" fill="#77A4E5"/>
<path d="M287.364 156.834C287.313 157.559 287.212 158.251 287.043 158.943C285.592 165.442 279.804 170.405 273.274 170.421C266.052 170.438 260.635 164.362 261.192 156.867C261.749 149.373 268.043 143.279 275.282 143.279C276.801 143.279 278.235 143.549 279.551 144.039C280.142 144.258 280.715 144.528 281.255 144.832C282.42 145.491 283.466 146.351 284.343 147.364C284.833 147.921 285.271 148.546 285.659 149.187C285.879 149.559 286.081 149.964 286.267 150.369C286.773 151.5 287.127 152.715 287.296 153.998C287.381 154.639 287.414 155.314 287.414 155.99C287.397 156.26 287.381 156.547 287.364 156.834Z" fill="#BDD1F9"/>
<path d="M286.25 150.369L274.27 156.867C274.27 156.867 279.214 148.158 281.239 144.832C282.403 145.491 283.449 146.351 284.327 147.364C284.816 147.921 285.255 148.546 285.643 149.187C285.879 149.575 286.081 149.964 286.25 150.369Z" fill="white"/>
<path d="M287.499 148.714L276.564 154.656C276.564 154.656 281.07 146.706 282.926 143.667C283.989 144.275 284.951 145.052 285.744 145.98C286.183 146.486 286.588 147.06 286.942 147.651C287.145 147.989 287.33 148.343 287.499 148.714Z" fill="#FFDD90"/>
<path d="M309.536 221.769H251.979L257.8 188.55H315.358L309.536 221.769ZM252.451 221.431H309.199L314.902 188.888H258.155L252.451 221.431Z" fill="#BDD1F9"/>
<path d="M306.111 217.211H255.067C255.067 217.211 264.128 212.35 266.609 212.603C269.089 212.856 272.666 214.831 274.961 214.899C277.256 214.966 279.737 208.079 282.302 208.4C284.85 208.721 285.811 214.831 287.144 214.224C288.477 213.616 292.443 213.363 294.721 214.224C297.016 215.084 300.34 211.506 302.348 211.624C304.356 211.759 306.111 217.211 306.111 217.211Z" fill="#FFDD90"/>
<path d="M267.334 207.455H257.598L257.682 206.932H267.435L267.334 207.455Z" fill="#FFDD90"/>
<path d="M267.149 208.569L257.395 208.552L257.48 208.046H267.233L267.149 208.569Z" fill="#FFDD90"/>
<path d="M257.986 200.568H309.03C309.03 200.568 301.673 195.707 299.108 195.96C296.526 196.213 292.274 198.188 289.945 198.256C287.617 198.34 287.549 191.436 284.883 191.757C282.217 192.078 279.112 198.171 277.999 197.58C276.885 196.99 273.004 196.72 270.422 197.58C267.84 198.441 265.748 194.863 263.706 194.981C261.648 195.099 257.986 200.568 257.986 200.568Z" fill="#BDD1F9"/>
<path d="M270.101 191.757H260.348L260.433 191.234H270.186L270.101 191.757Z" fill="#BDD1F9"/>
<path d="M269.899 192.854H260.146L260.247 192.348H269.983L269.899 192.854Z" fill="#BDD1F9"/>
<path d="M261.293 183.925H259.049L261.007 173.426H263.234L261.293 183.925Z" fill="#BDD1F9"/>
<path d="M264.348 183.925H262.103L263.622 175.789H265.849L264.348 183.925Z" fill="#BDD1F9"/>
<path d="M267.402 183.925H265.157L266.727 175.435H268.971L267.402 183.925Z" fill="#BDD1F9"/>
<path d="M270.439 183.925H268.212L269.41 177.477H271.637L270.439 183.925Z" fill="#BDD1F9"/>
<path d="M273.494 183.925H271.249L272.532 177.004H274.776L273.494 183.925Z" fill="#BDD1F9"/>
<path d="M276.547 183.925H274.303L275.299 178.557H277.543L276.547 183.925Z" fill="#BDD1F9"/>
<path d="M291.245 183.925H289.001L290.958 173.426H293.185L291.245 183.925Z" fill="#FFDD90"/>
<path d="M294.299 183.925H292.055L293.557 175.789H295.801L294.299 183.925Z" fill="#FFDD90"/>
<path d="M297.353 183.925H295.109L296.678 175.435H298.923L297.353 183.925Z" fill="#FFDD90"/>
<path d="M300.391 183.925H298.164L299.345 177.477H301.589L300.391 183.925Z" fill="#FFDD90"/>
<path d="M303.445 183.925H301.201L302.483 177.004H304.727L303.445 183.925Z" fill="#FFDD90"/>
<path d="M306.499 183.925H304.255L305.25 178.557H307.495L306.499 183.925Z" fill="#FFDD90"/>
<path d="M302.028 149.66H294.738L294.924 148.664H302.213L302.028 149.66Z" fill="#BDD1F9"/>
<path d="M310.971 149.66H302.922L303.108 148.664H311.156L310.971 149.66Z" fill="#BDD1F9"/>
<path d="M316.708 149.66H311.578L311.764 148.664H316.894L316.708 149.66Z" fill="#BDD1F9"/>
<path d="M321.501 149.66H317.535L317.721 148.664H321.686L321.501 149.66Z" fill="#BDD1F9"/>
<path d="M301.235 153.913H293.945L294.13 152.918H301.42L301.235 153.913Z" fill="#BDD1F9"/>
<path d="M310.161 153.913H302.112L302.315 152.918H310.347L310.161 153.913Z" fill="#BDD1F9"/>
<path d="M315.898 153.913H310.769L310.954 152.918H316.084L315.898 153.913Z" fill="#BDD1F9"/>
<path d="M320.69 153.913H316.725L316.927 152.918H320.876L320.69 153.913Z" fill="#BDD1F9"/>
<path d="M306.364 147.33H295.177L295.362 146.335H306.55L306.364 147.33Z" fill="#BDD1F9"/>
<path d="M313.873 147.331H307.427L307.613 146.335H314.059L313.873 147.331Z" fill="#BDD1F9"/>
<path d="M321.939 147.331H314.784L314.97 146.335H322.125L321.939 147.331Z" fill="#BDD1F9"/>
<path d="M305.503 151.854H294.333L294.518 150.858H305.689L305.503 151.854Z" fill="#BDD1F9"/>
<path d="M313.012 151.854H306.566L306.752 150.858H313.198L313.012 151.854Z" fill="#BDD1F9"/>
<path d="M321.078 151.854H313.924L314.109 150.858H321.264L321.078 151.854Z" fill="#BDD1F9"/>
<path d="M300.424 158.184H293.135L293.32 157.188H300.61L300.424 158.184Z" fill="#BDD1F9"/>
<path d="M309.368 158.184H301.319L301.504 157.188H309.553L309.368 158.184Z" fill="#BDD1F9"/>
<path d="M315.105 158.184H309.975L310.161 157.188H315.291L315.105 158.184Z" fill="#BDD1F9"/>
<path d="M319.897 158.184H315.932L316.117 157.188H320.083L319.897 158.184Z" fill="#BDD1F9"/>
<path d="M304.71 156.125H293.523L293.708 155.129H304.896L304.71 156.125Z" fill="#BDD1F9"/>
<path d="M312.22 156.125H305.774L305.959 155.129H312.405L312.22 156.125Z" fill="#BDD1F9"/>
<path d="M320.285 156.125H313.131L313.316 155.129H320.471L320.285 156.125Z" fill="#BDD1F9"/>
<path d="M299.682 162.184H292.393L292.578 161.172H299.868L299.682 162.184Z" fill="#BDD1F9"/>
<path d="M308.608 162.184H300.576L300.762 161.172H308.811L308.608 162.184Z" fill="#BDD1F9"/>
<path d="M314.346 162.184H309.216L309.402 161.172H314.548L314.346 162.184Z" fill="#BDD1F9"/>
<path d="M319.138 162.184H315.19L315.375 161.172H319.324L319.138 162.184Z" fill="#BDD1F9"/>
<path d="M303.951 160.108H292.781L292.966 159.112H304.137L303.951 160.108Z" fill="#BDD1F9"/>
<path d="M311.46 160.108H305.014L305.217 159.112H311.663L311.46 160.108Z" fill="#BDD1F9"/>
<path d="M319.543 160.108H312.371L312.557 159.112H319.728L319.543 160.108Z" fill="#BDD1F9"/>
<path d="M283.095 174.979H279.517L279.619 174.489H283.179L283.095 174.979Z" fill="#BDD1F9"/>
<path d="M287.465 174.979H283.533L283.618 174.489H287.566L287.465 174.979Z" fill="#BDD1F9"/>
<path d="M282.707 177.072H279.129L279.231 176.582H282.791L282.707 177.072Z" fill="#BDD1F9"/>
<path d="M287.077 177.072H283.129L283.23 176.582H287.162L287.077 177.072Z" fill="#BDD1F9"/>
<path d="M285.204 173.848H279.737L279.821 173.358H285.305L285.204 173.848Z" fill="#BDD1F9"/>
<path d="M288.882 173.848H285.727L285.828 173.358H288.984L288.882 173.848Z" fill="#BDD1F9"/>
<path d="M284.799 176.059H279.315L279.416 175.569H284.883L284.799 176.059Z" fill="#BDD1F9"/>
<path d="M288.477 176.059H285.322L285.406 175.569H288.562L288.477 176.059Z" fill="#BDD1F9"/>
<path d="M311.663 174.979H308.102L308.187 174.489H311.764L311.663 174.979Z" fill="#BDD1F9"/>
<path d="M316.05 174.979H312.101L312.203 174.489H316.134L316.05 174.979Z" fill="#BDD1F9"/>
<path d="M311.275 177.072H307.714L307.798 176.582H311.359L311.275 177.072Z" fill="#BDD1F9"/>
<path d="M315.645 177.072H311.713L311.798 176.582H315.746L315.645 177.072Z" fill="#BDD1F9"/>
<path d="M313.789 173.848H308.322L308.406 173.358H313.873L313.789 173.848Z" fill="#BDD1F9"/>
<path d="M317.467 173.848H314.312L314.396 173.358H317.552L317.467 173.848Z" fill="#BDD1F9"/>
<path d="M313.367 176.059H307.9L307.984 175.569H313.468L313.367 176.059Z" fill="#BDD1F9"/>
<path d="M317.045 176.059H313.89L313.991 175.569H317.13L317.045 176.059Z" fill="#BDD1F9"/>
<path d="M330.646 263.528C330.528 265.233 328.115 265.25 325.381 264.929C322.647 264.609 323.373 265.301 319.542 265.351C315.712 265.402 314.396 264.136 314.21 263.596C314.041 263.106 315.881 262.701 317.855 262.229C318.108 262.161 318.344 262.11 318.598 262.043C320.825 261.486 322.293 259.815 324.2 258.363C326.005 256.979 328.334 252 328.334 252L333.565 251.763C333.565 251.763 331.371 256.236 330.544 258.161C330.055 259.292 330.258 260.693 330.477 261.756C330.578 262.33 330.696 262.921 330.646 263.528Z" fill="#FFC864"/>
<path d="M325.381 264.946C322.647 264.625 323.373 265.317 319.542 265.368C315.712 265.419 314.396 264.153 314.21 263.613C314.041 263.123 315.881 262.718 317.855 262.245L317.872 262.279C317.872 262.279 320.336 263.596 323.491 263.292C326.056 263.039 328.688 261.959 330.46 261.773C330.578 262.347 330.679 262.954 330.646 263.545C330.528 265.233 328.115 265.25 325.381 264.946Z" fill="#233862"/>
<path d="M366.757 263.883C366.639 265.588 364.226 265.604 361.492 265.301C358.758 264.98 359.484 265.672 355.654 265.739C351.823 265.79 350.507 264.541 350.321 263.984C350.153 263.495 351.992 263.089 353.966 262.6C354.219 262.532 354.456 262.482 354.709 262.414C356.936 261.84 358.404 260.186 360.311 258.718C362.116 257.334 360.311 249.181 360.311 249.181L366.065 248.624C366.065 248.624 365.795 255.494 365.795 258.616C365.795 259.849 366.369 261.03 366.571 262.11C366.689 262.684 366.791 263.275 366.757 263.883Z" fill="#FFC864"/>
<path d="M361.492 265.301C358.758 264.98 359.484 265.672 355.654 265.74C351.823 265.79 350.507 264.541 350.321 263.984C350.153 263.495 351.992 263.09 353.966 262.6L353.983 262.634C353.983 262.634 356.447 263.95 359.602 263.63C362.167 263.376 364.782 262.296 366.571 262.094C366.689 262.668 366.791 263.275 366.757 263.866C366.622 265.588 364.226 265.621 361.492 265.301Z" fill="#233862"/>
<path d="M349.967 122.822C348.971 118.754 350.406 116.847 351.705 115.851C352.312 114.348 353.021 113.268 353.73 112.863C355.029 112.12 356.598 112.036 357.695 112.103C357.408 111.816 356.851 111.698 356.851 111.698C357.526 111.597 359.045 112.272 359.045 112.272C368.495 108.626 369.979 122.552 369.777 125.776C369.574 129.017 369.608 132.814 374.519 135.363C383.901 140.224 371.397 158.539 371.397 158.539C371.633 155.922 359.585 142.132 353.291 138.013C351.755 135.751 351.215 131.785 351.182 131.464C351.452 134.62 351.992 136.393 352.464 137.389C349.629 134.739 349.207 128.409 349.967 122.822Z" fill="#A9453D"/>
<path d="M353.696 138.216C353.662 138.233 356.733 139.819 359.045 139.195C361.222 138.604 362.639 135.785 362.606 135.785C361.694 135.6 361.424 134.334 361.441 128.915L361.019 129L354.034 130.384C354.034 130.384 354.185 132.578 354.202 134.654C354.202 136.376 354.101 138.03 353.696 138.216Z" fill="#FFC864"/>
<path d="M354.033 130.367C354.033 130.367 354.185 132.561 354.202 134.637C358.117 134.519 360.176 130.958 361.019 128.983L354.033 130.367Z" fill="#FFC864"/>
<path d="M325.617 254.768C325.28 255.848 326.039 256.945 327.17 256.996L329.903 257.131L332.789 257.215C333.514 257.232 334.206 256.928 334.662 256.355C336.974 253.519 344.061 244.1 348.364 230.394C348.482 230.006 348.617 229.618 348.752 229.229C351.587 220.942 357.493 210.527 360.597 201.108C361.087 199.606 361.542 198.188 361.931 196.855C362.066 196.433 362.184 196.011 362.302 195.589C364.597 187.639 365.255 182.406 365.862 176.836L343.436 177.021C343.42 177.038 338.712 213.751 325.617 254.768Z" fill="#2A4E96"/>
<path d="M346.558 164.159C346.609 174.827 344.989 179.418 344.989 179.418C344.989 179.418 354.59 184.297 365.997 180.701C366.132 180.651 374.164 178.389 374.164 178.389C373.979 177.95 372.392 170.81 372.207 170.422C369.794 165.24 369.136 163.079 368.849 161.476C368.326 158.505 368.309 155.433 368.579 152.53C369.271 144.849 371.346 138.486 371.346 138.486C368.241 137.777 365.322 136.528 362.082 135.329C361.34 136.258 359.062 137.22 357.088 137.186C354.81 137.136 354.084 136.157 354.202 135.093C351.772 136.443 349.849 137.709 349.849 137.709C347.79 141.288 343.622 144.765 343.318 150.251C343.251 151.601 346.558 163.856 346.558 164.159Z" fill="white"/>
<path d="M365.845 165.341C366.824 166.725 368.697 175.165 373.388 176.228C370.975 170.219 369.152 167.586 368.866 165.729C368.342 162.286 368.326 158.707 368.596 155.348C367.026 152.597 365.862 150.723 365.862 150.723C365.744 150.285 363.381 142.959 362.622 149.508C361.846 156.04 364.748 163.788 365.845 165.341Z" fill="#5F9AA8"/>
<path d="M352.734 132.325C352.734 132.325 361.981 132.477 361.998 126.721C361.998 120.965 363.196 117.1 357.29 116.762C351.384 116.424 350.237 118.619 349.764 120.543C349.292 122.45 350.321 132.139 352.734 132.325Z" fill="#FFC864"/>
<path d="M353.072 116.61C353.072 116.61 355.603 123.379 359.484 124.375C363.365 125.371 365.052 124.341 365.052 124.341C365.052 124.341 362.066 121.978 361.458 117.842C361.475 117.825 354.979 113.386 353.072 116.61Z" fill="#A9453D"/>
<path d="M353.696 117.15C353.696 117.15 351.806 118.653 351.35 120.121C350.895 121.59 350.675 124.611 349.798 124.51C349.798 124.51 347.891 119.919 350.034 117.319C352.312 114.568 353.696 117.15 353.696 117.15Z" fill="#A9453D"/>
<path d="M338.172 171.57L333.818 184.887L336.299 185.883L343.521 174.118L338.172 171.57Z" fill="#FFC864"/>
<path d="M349.95 136.933C349.95 136.933 344.804 138.975 343.302 142.166C341.817 145.356 339.556 166.742 338.661 168.936C337.767 171.131 337.092 172.869 337.092 172.869C337.092 172.869 339.691 175.063 342.306 175.215C344.922 175.367 349.95 136.933 349.95 136.933Z" fill="#FFDD90"/>
<path d="M354.202 135.093C354.202 135.093 348.853 148.31 348.701 150.994C348.549 153.677 348.077 194.762 348.077 194.762C348.077 194.762 348.398 196.652 344.77 195.859C341.142 195.066 340.214 194.289 340.214 194.289C340.214 194.289 343.673 168.936 342.728 160.125C341.783 151.314 349.967 136.933 349.967 136.933L354.202 135.093Z" fill="#FFDD90"/>
<path d="M329.904 257.131L333.042 257.232C333.599 257.249 334.139 257.013 334.493 256.574C336.603 254.025 343.943 244.471 348.364 230.411C348.482 230.023 348.617 229.635 348.752 229.246C351.587 220.959 357.493 210.544 360.598 201.125C361.087 199.623 361.543 198.205 361.931 196.872C362.066 196.45 362.184 196.028 362.302 195.606L358.995 193.108C358.995 193.108 349.073 209.16 346.018 224.284C343.335 237.416 332.654 253.215 329.904 257.131Z" fill="#1E3D70"/>
<path d="M358.64 225.685C358.59 232.639 358.91 248.134 359.754 255.713C359.838 256.405 360.412 256.929 361.121 256.929H363.466C364.445 256.929 365.187 256.929 365.677 256.912C366.099 256.912 366.47 256.608 366.537 256.186C368.866 244.336 370.536 234.496 371.751 226.005C372.764 218.882 373.675 212.789 374.367 207.539C375.076 202.256 375.565 197.834 375.734 194.087C375.767 193.496 375.784 192.922 375.784 192.365C375.801 191.808 375.801 191.268 375.801 190.728L356.43 188.837C356.683 201.733 358.674 221.414 358.64 225.685Z" fill="#2A4E96"/>
<path d="M363.466 256.929C364.36 256.929 365.035 256.929 365.524 256.912C366.048 256.912 366.486 256.54 366.588 256.034C368.899 244.252 370.553 234.462 371.768 226.006C372.78 218.882 373.692 212.789 374.383 207.54C375.092 202.256 375.581 197.834 375.75 194.087L368.646 198.273C368.646 198.273 373.185 199.876 371.447 211.996C369.709 224.115 365.879 255.224 363.466 256.929Z" fill="#1E3D70"/>
<path d="M362.555 193.968C362.555 193.968 363.922 198.897 368.647 198.273C373.371 197.648 380.087 194.812 380.087 194.812C380.087 194.812 378.062 188.432 375.565 180.06C372.528 169.915 368.765 156.834 366.993 148.597C366.504 146.284 366.149 144.36 366.031 142.976L362.116 135.38C362.116 135.38 356.278 148.495 355.957 151.804C355.62 155.078 362.555 193.968 362.555 193.968Z" fill="#FFDD90"/>
<path d="M367.263 151.28L362.099 135.346C362.116 135.346 368.629 137.287 371.903 138.942C371.903 138.942 373.945 141.592 375.227 147.685C375.227 147.685 376.56 162.32 373.574 167.67C373.574 167.67 364.124 169.561 349.022 164.362V160.902C349.022 160.902 365.541 161.763 368.933 162.168L367.263 151.28Z" fill="#FFC864"/>
<path d="M362.757 158.707C362.977 164.058 364.225 174.456 375.447 180.009C375.48 180.026 375.514 180.043 375.531 180.06C372.494 169.915 368.731 156.834 366.959 148.597C364.917 151.669 362.639 155.754 362.757 158.707Z" fill="#FFC864"/>
<path d="M362.099 135.363C362.099 135.363 371.684 136.038 373.996 141.187C376.307 146.335 377.033 163.434 374.097 168.481C374.097 168.481 370.047 169.628 362.892 168.295C362.808 168.278 362.724 168.261 362.622 168.244C362.622 168.244 360.344 162.657 362.386 161.56C362.386 161.56 368.427 161.881 367.786 159.889C367.145 157.897 362.099 135.363 362.099 135.363Z" fill="#FFDD90"/>
<path d="M338.071 163.045L338.358 163.957L354.084 159.062C354.084 159.062 354.287 158.825 354.186 158.505C354.067 158.15 353.797 158.15 353.797 158.15L338.071 163.045Z" fill="#A9453D"/>
<path d="M336.923 163.906L338.071 163.045L338.341 163.957L336.923 163.906Z" fill="#A9453D"/>
<path d="M334.426 184.533C334.426 184.533 330.444 186.744 329.904 188.415C329.381 190.103 329.735 193.614 330.376 193.563C331.017 193.513 331.962 189.782 332.485 189.512C333.008 189.242 333.751 188.466 333.751 189.04C333.751 189.613 333.228 190.66 333.481 190.829C333.751 190.981 334.578 189.36 335.168 189.04C335.742 188.719 335.995 186.136 336.552 185.427C337.109 184.718 334.426 184.533 334.426 184.533Z" fill="#FFC864"/>
<path d="M349.022 160.902C349.022 160.902 345.462 158.707 343.96 159.045C342.458 159.382 338.645 162.151 340.484 162.741C342.323 163.332 343.808 162.708 344.517 163.147C345.225 163.585 345.749 164.379 349.039 164.362C352.329 164.345 349.022 160.902 349.022 160.902Z" fill="#FFC864"/>
<g opacity="0.6">
<g opacity="0.6">
<path opacity="0.6" d="M176.231 264.878H176.18C175.826 264.878 175.556 264.592 175.556 264.254L176.501 223.642L179.268 223.321L176.923 264.254C176.872 264.592 176.585 264.878 176.231 264.878Z" fill="#77A4E5"/>
</g>
<g opacity="0.6">
<path opacity="0.6" d="M160.15 264.878H160.099C159.745 264.878 159.475 264.592 159.475 264.254L160.42 223.642L163.187 223.321L160.842 264.254C160.791 264.592 160.504 264.878 160.15 264.878Z" fill="#77A4E5"/>
</g>
<g opacity="0.6">
<path opacity="0.6" d="M204.529 264.878H204.579C204.934 264.878 205.204 264.592 205.204 264.254L204.259 223.642L201.491 223.321L203.837 264.254C203.87 264.592 204.174 264.878 204.529 264.878Z" fill="#77A4E5"/>
</g>
<path opacity="0.6" d="M158.327 221.111V193.276C158.327 188.381 162.293 184.415 167.186 184.415H187.233C192.126 184.415 196.092 188.381 196.092 193.276V222.174L158.327 221.111Z" fill="#77A4E5"/>
<path opacity="0.6" d="M199.686 225.499H160.977C159.509 225.499 158.311 224.301 158.311 222.832V221.094H199.669V225.499H199.686Z" fill="#77A4E5"/>
<path opacity="0.6" d="M204.326 225.499H175.05C173.97 225.499 173.075 224.621 173.075 223.524V223.068C173.075 221.988 173.953 221.094 175.05 221.094H204.326C205.406 221.094 206.3 221.971 206.3 223.068V223.524C206.3 224.621 205.406 225.499 204.326 225.499Z" fill="#77A4E5"/>
</g>
<path d="M226.229 248.674C226.516 250.075 228.507 249.839 230.734 249.299C232.962 248.759 232.438 249.4 235.594 249.046C238.749 248.691 239.728 247.51 239.812 247.037C239.897 246.615 238.328 246.463 236.657 246.278C236.438 246.261 236.235 246.227 236.016 246.193C234.126 245.957 232.725 244.725 231.004 243.729C229.367 242.784 226.938 238.901 226.938 238.901L222.584 239.239C222.584 239.239 224.862 242.699 225.739 244.218C226.263 245.113 226.229 246.278 226.161 247.189C226.161 247.679 226.128 248.185 226.229 248.674Z" fill="#FFC864"/>
<path d="M230.735 249.299C232.962 248.759 232.439 249.4 235.594 249.046C238.75 248.691 239.728 247.51 239.813 247.037C239.897 246.615 238.328 246.463 236.657 246.277L236.64 246.311C236.64 246.311 234.734 247.662 232.101 247.729C229.958 247.78 227.68 247.172 226.195 247.189C226.162 247.678 226.128 248.185 226.229 248.674C226.516 250.075 228.507 249.839 230.735 249.299Z" fill="#233862"/>
<path d="M188.87 254.937C188.009 256.068 189.494 257.418 191.384 258.718C193.274 260.017 192.43 260.051 194.793 262.212C197.155 264.372 198.674 264.288 199.096 264.051C199.467 263.832 198.539 262.566 197.577 261.182C197.459 261.013 197.341 260.828 197.206 260.659C196.126 259.072 196.126 257.232 195.738 255.274C195.366 253.418 198.404 246.598 198.404 246.598L193.544 245.991C193.544 245.991 192.903 250.109 192.363 251.763C192.042 252.742 190.692 253.384 189.967 253.924C189.579 254.228 189.174 254.532 188.87 254.937Z" fill="#FFC864"/>
<path d="M191.384 258.718C193.257 260.034 192.43 260.051 194.792 262.212C197.155 264.372 198.674 264.288 199.095 264.052C199.467 263.832 198.539 262.566 197.577 261.182L197.543 261.199C197.543 261.199 195.282 260.659 193.476 258.735C192.008 257.148 190.962 255.038 189.966 253.941C189.578 254.245 189.173 254.548 188.87 254.954C188.009 256.068 189.511 257.418 191.384 258.718Z" fill="#233862"/>
<path d="M208.731 220.098L204.293 232.048L198.488 247.662C198.488 247.662 196.919 247.814 195.4 247.375C194.016 246.97 192.413 245.923 192.413 245.923C192.413 245.923 194.016 229.162 197.02 219.541C197.796 217.076 198.657 215.068 199.602 213.954C204.293 208.451 208.731 220.098 208.731 220.098Z" fill="#163560"/>
<path d="M204.225 201.125C201.323 200.18 192.548 200.754 184.212 202.374L182.93 200.146L164.925 198.745C164.925 198.745 158.985 211.928 162.242 220.317C162.715 221.549 163.676 222.343 165.296 222.376H165.566C165.566 222.376 176.281 222.376 179.758 222.376C188.718 222.376 198.707 216.215 200.006 215.962C202.116 215.54 202.976 219.777 205.086 224.216C207.195 228.656 224.98 243.898 224.98 243.898C224.98 243.898 227.714 243.931 228.844 243.509C230.059 243.054 230.498 242.463 230.498 242.463C230.498 242.463 210.789 203.235 204.225 201.125Z" fill="#2A4E96"/>
<path d="M176.619 145.626C174.088 145.018 170.645 145.727 170.072 145.795C163.238 146.588 161.702 157.222 162.208 160.193C163.153 165.662 160.521 167.215 157.382 171.586C151.088 180.364 155.442 187.605 160.555 189.394C163.626 190.474 167.811 187.537 167.811 187.537C167.895 187.571 178.677 177.258 184.027 172.245C193.02 168.548 183.082 147.162 176.619 145.626Z" fill="#233862"/>
<path d="M178.087 170.675C178.121 170.692 175.303 172.531 173.008 172.143C170.848 171.789 168.57 168.97 168.587 168.953C169.464 168.683 170.224 167.67 169.684 162.421L170.089 162.454L176.99 163.113C176.99 163.113 177.058 165.256 177.243 167.265C177.429 168.936 177.682 170.523 178.087 170.675Z" fill="#FFC864"/>
<path d="M177.007 163.113C177.007 163.113 177.075 165.257 177.26 167.265C173.464 167.535 171.118 164.278 170.106 162.455L177.007 163.113Z" fill="#FFC864"/>
<path d="M178.458 164.885C178.458 164.885 169.515 165.932 168.958 160.345C168.401 154.758 166.866 151.145 172.535 150.234C178.222 149.322 179.538 151.348 180.196 153.171C180.854 154.994 180.77 164.463 178.458 164.885Z" fill="#FFC864"/>
<path d="M179.116 150.301C179.116 150.301 174.797 156.479 171.135 157.83C167.473 159.18 165.735 158.336 165.735 158.336C165.735 158.336 167.49 155.922 168.064 152.614C168.232 151.635 168.907 150.825 169.852 150.504C172.485 149.576 177.547 148.158 179.116 150.301Z" fill="#233862"/>
<path d="M175.556 150.757C175.556 150.757 177.868 152.074 178.779 153.255C179.673 154.386 180.618 157.408 180.483 158.741C180.483 158.741 181.934 152.394 179.606 150.082C177.142 147.651 175.556 150.757 175.556 150.757Z" fill="#233862"/>
<path d="M184.972 185.478C184.702 203.539 184.904 199.775 182.93 201.48C182.457 201.885 181.107 202.138 179.352 202.256C173.818 202.628 164.081 201.716 163.71 200.686C162.428 197.142 163.339 196.045 162.276 190.626C162.158 190.052 162.023 189.428 161.871 188.753C160.977 185.022 160.116 183.756 163.271 177.781C166.123 172.363 169.211 168.025 169.481 168.194C177.024 172.667 177.513 168.835 177.513 168.835C177.513 168.835 185.09 176.667 184.972 185.478Z" fill="white"/>
<path d="M204.292 232.048L198.37 248.303C198.37 248.303 196.244 248.995 194.691 248.776C193.105 248.539 192.244 247.678 192.244 247.678C192.244 247.678 194.05 229.162 197.054 219.541L204.292 232.048Z" fill="#2A4E96"/>
<path d="M177.496 168.818C177.496 168.818 185.259 170.135 186.17 173.477C187.081 176.819 193.746 195.234 193.746 195.234C193.746 195.234 188.498 197.176 186.676 195.353C184.854 193.53 180.331 178.439 180.331 178.439L177.496 168.818Z" fill="white"/>
<path d="M179.336 202.256C173.801 202.627 164.065 201.716 163.694 200.686C162.411 197.142 163.322 196.044 162.259 190.626L164.858 184.718C164.858 184.718 164.487 191.487 166.967 193.698C169.431 195.909 177.075 197.952 178.273 199.792C178.847 200.653 179.235 201.547 179.336 202.256Z" fill="#DFEBFD"/>
<path d="M179.791 198.391C179.791 198.391 181.445 199.809 181.917 199.927C182.39 200.045 182.66 199.927 182.66 199.927L181.462 198.526L179.791 198.391Z" fill="#FFC864"/>
<path d="M179.133 196.72L183.301 197.8C183.301 197.8 183.2 198.104 182.727 198.171C182.255 198.239 180.989 198.053 180.989 198.053L179.133 196.72Z" fill="#FFC864"/>
<path d="M172.063 199.032C172.063 199.032 178.02 196.382 179.15 196.737C180.281 197.091 183.132 198.61 183.588 199.252C184.044 199.893 181.243 199.167 180.365 199.117C179.791 199.083 178.492 199.859 177.834 200.231C175.083 201.8 173.177 201.665 173.177 201.665L172.063 199.032Z" fill="#FFC864"/>
<path d="M169.464 168.177C169.464 168.177 161.027 169.763 159.475 172.093C156.066 177.19 148.81 198.34 152.877 201.176C157.45 204.366 173.7 202.003 173.7 202.003C173.7 202.003 174.24 199.471 173.48 198.256C172.721 197.04 160.504 195.049 159.93 194.492C159.373 193.935 165.499 185.765 164.858 184.195C162.765 179.199 169.464 168.177 169.464 168.177Z" fill="white"/>
<path d="M202.791 198.121C202.791 198.121 208.697 199.707 209.304 200.636C209.911 201.547 211.093 204.349 211.042 205.092C210.991 205.818 209.388 203.64 208.781 203.083C208.393 202.729 206.975 202.509 206.284 202.391C204.529 202.104 203.685 201.311 203.027 200.906C202.588 200.636 202.048 200.686 202.048 200.686L202.791 198.121Z" fill="#FFC864"/>
<path d="M208.798 202.239C208.798 202.239 209.152 204.248 209.422 204.602C209.692 204.957 209.945 205.041 209.945 205.041L209.912 203.303L208.798 202.239Z" fill="#FFC864"/>
<path d="M209.304 200.636L211.7 203.893C211.7 203.893 211.447 204.045 211.059 203.826C210.671 203.607 209.861 202.712 209.861 202.712L209.304 200.636Z" fill="#FFC864"/>
<path d="M203.027 200.906C203.027 200.906 203.567 202.239 204.664 202.712C205.76 203.184 206.554 203.91 206.739 203.64C206.908 203.387 205.912 202.037 205.912 202.037L203.027 200.906Z" fill="#FFC864"/>
<path d="M192.177 190.879L204.596 198.728C204.596 198.728 203.297 200.467 202.858 200.636C200.564 201.48 190.22 200.669 186.676 195.352L192.177 190.879Z" fill="white"/>
<path d="M187.25 199.403C187.975 199.403 195.265 198.897 195.265 198.897C195.265 198.897 195.062 200.197 195.501 200.872L188.397 202.239L186.946 201.817L187.25 199.403Z" fill="#F9DDBF"/>
<path d="M175.1 200.585L187.25 199.42C187.25 199.42 186.828 201.665 188.414 202.256L175.016 203.235C175.016 203.235 173.936 201.699 175.1 200.585Z" fill="#FFDD90"/>
<path d="M195.248 199.066L187.03 199.691C187.03 199.691 187.098 199.404 187.25 199.404C187.402 199.404 195.417 198.813 195.417 198.813L195.383 199.032L195.248 199.066Z" fill="#FFDD90"/>
<path d="M188.414 202.239L195.636 200.872L195.585 200.686L187.874 202.155L188.414 202.239Z" fill="#FFDD90"/>
<path d="M104.246 264.811H104.178C103.79 264.811 103.487 264.49 103.487 264.102L104.533 218.747L107.604 218.393L104.988 264.102C104.955 264.507 104.634 264.811 104.246 264.811Z" fill="#77A4E5"/>
<path d="M86.393 264.811H86.3255C85.9374 264.811 85.6337 264.49 85.6337 264.102L86.6799 218.747L89.751 218.393L87.1355 264.102C87.1017 264.507 86.7811 264.811 86.393 264.811Z" fill="#77A4E5"/>
<path d="M135.648 264.811H135.716C136.104 264.811 136.408 264.49 136.408 264.102L135.362 218.747L132.291 218.393L134.906 264.102C134.923 264.507 135.26 264.811 135.648 264.811Z" fill="#77A4E5"/>
<path d="M84.3682 215.945V184.87C84.3682 179.401 88.7723 174.962 94.2058 174.962H116.463C121.896 174.962 126.3 179.401 126.3 184.87V217.127L84.3682 215.945Z" fill="#77A4E5"/>
<path d="M130.282 220.84H87.3208C85.684 220.84 84.351 219.507 84.351 217.869V215.928H130.265V220.84H130.282Z" fill="#77A4E5"/>
<path d="M135.429 220.84H102.93C101.715 220.84 100.736 219.861 100.736 218.646V218.123C100.736 216.907 101.715 215.928 102.93 215.928H135.412C136.627 215.928 137.606 216.907 137.606 218.123V218.646C137.606 219.861 136.627 220.84 135.429 220.84Z" fill="#77A4E5"/>
<path d="M117.948 163.484C117.948 163.484 116.091 165.071 115.686 169.172C115.383 172.295 117.543 196.517 119.179 198.441C123.769 203.859 129.506 201.564 131.751 202.391L133.877 200.484C133.877 200.484 126.418 194.981 125.845 193.175C123.651 186.271 125.001 166.1 117.948 163.484Z" fill="#F9DDBF"/>
<path d="M116.615 143.735C116.615 143.735 116.733 139.296 110.877 138.418C105.022 137.541 103.402 138.925 102.407 140.41C101.411 141.912 99.5379 148.006 99.7235 150.436C99.9091 152.867 106.591 155.872 106.49 157.289C106.372 158.69 116.615 143.735 116.615 143.735Z" fill="#163560"/>
<path d="M143.782 260.979C143.597 262.482 145.638 262.921 148.018 263.14C150.397 263.343 149.654 263.815 152.911 264.541C156.168 265.267 157.501 264.406 157.754 263.967C157.973 263.579 156.488 262.904 154.885 262.127C154.683 262.026 154.48 261.942 154.278 261.84C152.489 260.963 151.527 259.258 150.161 257.654C148.861 256.135 147.748 251.409 147.748 251.409L143.344 250.278C143.344 250.278 144.44 254.531 144.812 256.354C145.031 257.418 144.609 258.583 144.238 259.477C144.052 259.95 143.85 260.439 143.782 260.979Z" fill="#FFC864"/>
<path d="M148.017 263.123C150.397 263.326 149.654 263.798 152.911 264.524C156.168 265.25 157.501 264.389 157.754 263.95C157.973 263.562 156.488 262.887 154.885 262.11L154.851 262.144C154.851 262.144 152.523 262.853 149.89 262.026C147.747 261.351 145.706 259.95 144.221 259.477C144.018 259.967 143.833 260.456 143.765 260.979C143.596 262.482 145.638 262.921 148.017 263.123Z" fill="#233862"/>
<path d="M110.776 199.758C110.776 199.758 140.255 202.813 145.115 207.337C149.975 211.843 149.114 253.907 149.114 253.907C148.355 254.7 147.798 254.666 146.6 254.582C145.452 254.498 143.107 253.502 143.107 253.502C143.107 253.502 136.796 232.858 136.712 228.064C136.627 223.288 135.632 215.169 133.624 214.696C131.616 214.223 107.756 216.89 105.14 209.362C102.525 201.817 106.861 195.622 106.861 195.622L110.776 199.758Z" fill="#FFC864"/>
<path d="M97.0069 207.337C98.2724 208.181 100.55 209.497 104.364 209.632C111.198 209.885 119.719 209.058 121.39 207.489C121.829 207.083 122.031 206.408 122.099 205.547C122.284 202.931 121.036 198.61 120.192 195.048C119.652 192.736 119.281 190.727 119.584 189.698C120.513 186.575 123.381 180.228 123.634 178.152C123.887 176.059 121.39 164.885 117.948 163.501C114.505 162.117 101.225 163.501 101.225 163.501C96.0282 164.547 95.8088 175.62 97.5468 185.039C97.5974 185.275 97.6312 185.528 97.6818 185.765C99.538 195.319 93.4633 204.957 97.0069 207.337Z" fill="#F9DDBF"/>
<path d="M114.168 165.527C114.066 166.134 112.413 167.113 108.869 166.185C105.461 165.29 105.056 164.176 105.056 163.45C105.056 162.59 106.541 161.425 106.524 156.091L106.929 156.175L113.796 157.543C113.796 157.543 113.645 159.703 113.628 161.729C113.611 163.417 114.32 164.514 114.168 165.527Z" fill="#FFC864"/>
<path d="M113.78 157.509C113.78 157.509 113.628 159.669 113.611 161.695C109.764 161.594 107.739 158.083 106.912 156.141L113.78 157.509Z" fill="#FFC864"/>
<path d="M115.062 159.45C115.062 159.45 105.984 159.602 105.967 153.947C105.967 148.293 104.786 144.495 110.59 144.157C116.395 143.82 117.526 145.98 117.981 147.871C118.437 149.744 117.424 159.264 115.062 159.45Z" fill="#FFC864"/>
<path d="M114.725 144.005C114.725 144.005 112.244 150.639 108.414 151.635C104.6 152.614 102.947 151.601 102.947 151.601C102.947 151.601 105.866 149.271 106.473 145.22C106.49 145.204 112.852 140.849 114.725 144.005Z" fill="#163560"/>
<path d="M114.117 144.545C114.117 144.545 115.973 146.031 116.429 147.466C116.885 148.9 117.087 151.871 117.948 151.77C117.948 151.77 119.821 147.263 117.712 144.697C115.467 141.997 114.117 144.545 114.117 144.545Z" fill="#163560"/>
<path d="M121.643 262.212C121.626 263.731 123.702 263.933 126.098 263.866C128.494 263.798 127.802 264.355 131.109 264.693C134.417 265.03 135.649 264.018 135.851 263.562C136.037 263.14 134.467 262.65 132.797 262.077C132.594 262.009 132.375 261.925 132.173 261.857C130.299 261.182 129.152 259.612 127.616 258.177C126.165 256.827 129.371 250.278 129.371 250.278L125.17 248.202C125.17 248.202 124.377 252.877 123.347 256.962C123.077 258.025 122.217 259.764 121.947 260.676C121.795 261.165 121.66 261.671 121.643 262.212Z" fill="#FFC864"/>
<path d="M97.1925 206.206C98.4581 207.05 100.55 209.497 104.381 209.632C110.675 208.198 117.846 206.527 122.116 205.531C122.301 202.914 121.053 198.593 120.209 195.032C115.231 196.551 107.84 191.369 105.343 189.326C102.727 187.183 102.812 180.026 102.812 180.026L97.5469 185.022C97.5975 185.258 97.6312 185.512 97.6819 185.748C99.538 195.319 93.6321 203.843 97.1925 206.206Z" fill="#FFE6A3"/>
<path d="M126.098 263.866C128.494 263.798 127.802 264.355 131.109 264.693C134.417 265.03 135.649 264.018 135.851 263.562C136.037 263.14 134.467 262.65 132.797 262.076L132.78 262.11C132.78 262.11 130.553 263.089 127.836 262.566C125.625 262.144 123.449 260.996 121.93 260.692C121.795 261.199 121.643 261.705 121.643 262.245C121.626 263.714 123.702 263.933 126.098 263.866Z" fill="#233862"/>
<path d="M104.415 201.547C111.907 201.328 134.248 203.117 138.551 206.358C143.833 210.341 128.73 253.451 128.73 253.451C128.73 253.451 126.975 253.62 126.419 253.552C124.022 253.282 123.044 252.557 123.044 252.557C123.044 252.557 123.094 227.187 124.866 222.326C126.503 217.836 127.499 216.249 125.457 215.979C123.415 215.709 97.9182 218.967 95.792 211.27C94.1384 205.261 96.5851 199.69 96.5851 199.69C96.5851 199.69 97.5132 201.75 104.415 201.547Z" fill="#FFDD90"/>
<path d="M101.225 163.484C101.225 163.484 96.0283 163.923 95.6233 168.042C95.3195 171.164 93.0584 193.293 94.6783 195.217C99.2681 200.636 114.539 201.783 116.783 202.611L117.408 200.045C117.408 200.045 101.09 191.825 101.344 189.951C101.597 188.094 106.203 162.741 101.225 163.484Z" fill="#F9DDBF"/>
<path d="M105.241 140.646C105.241 140.646 105.613 138.283 102.322 137.659C99.0318 137.051 98.9812 144.039 98.6268 145.71C98.2725 147.398 99.1499 148.411 100.399 148.512C101.647 148.613 105.241 140.646 105.241 140.646Z" fill="#163560"/>
<path d="M117.577 199.943C117.577 199.943 122.217 198.627 123.331 198.931C124.444 199.234 128.224 201.75 127.701 202.425C127.161 203.1 123.82 202.02 122.284 202.222C120.749 202.425 119.551 203.184 118.454 203.015C117.34 202.847 116.193 202.425 116.193 202.425L117.577 199.943Z" fill="#FFC864"/>
<path d="M117.576 199.943C117.576 199.943 119.854 198.779 120.495 198.104C120.58 198.019 120.715 198.036 120.782 198.137C120.951 198.407 121.12 198.931 120.327 199.471C119.179 200.214 117.576 199.943 117.576 199.943Z" fill="#FFC864"/>
<path d="M133.86 200.501C133.86 200.501 138.686 200.771 139.631 201.412C140.576 202.07 143.343 205.666 142.618 206.138C141.892 206.611 139.091 204.501 137.572 204.197C136.054 203.893 134.687 204.231 133.691 203.708C132.696 203.184 131.751 202.408 131.751 202.408L133.86 200.501Z" fill="#FFC864"/>
<path d="M100.752 265.199H81.1278C80.1829 264.052 80.5372 259.798 80.6722 258.414C80.706 258.127 80.7229 257.975 80.7229 257.975C80.7229 257.975 87.4219 252.624 88.3331 256.726C88.3668 256.861 88.4006 256.979 88.4343 257.097C89.5986 260.929 94.7959 262.684 97.7995 263.174C99.7569 263.478 100.482 264.49 100.752 265.199Z" fill="#1B3051"/>
<path d="M47.228 201.446C47.9367 201.446 80.8244 207.624 86.2579 214.359C88.9746 217.718 89.3796 256.591 89.3796 256.591C89.3796 256.591 86.0216 260.76 78.7489 258.346C78.7489 258.346 73.4167 231.761 73.8216 223.693C73.9229 221.465 51.3453 223.372 47.2111 222.292C43.077 221.229 32.9863 212.232 35.2136 207.843C37.4579 203.471 47.228 201.446 47.228 201.446Z" fill="#233862"/>
<path d="M71.0374 199.623C71.0374 199.623 73.1466 201.446 75.3065 201.952C76.5383 202.239 77.7364 202.577 78.4451 202.898C80.4025 203.792 84.0979 207.793 83.7604 208.198C82.6636 209.481 78.2089 206.155 77.3483 206.392C76.5046 206.628 78.7488 208.552 77.8545 209.075C77.382 209.346 76.5046 207.675 75.6946 207.438C74.5809 207.117 73.8553 205.446 73.5179 205.328C72.8766 205.109 70.1599 202.678 70.1599 202.678L71.0374 199.623Z" fill="#FFC864"/>
<path d="M109.426 265.199H89.8013C88.8563 264.052 89.2107 259.798 89.3457 258.414C89.3794 258.127 89.3963 257.975 89.3963 257.975C89.3963 257.975 96.0953 252.624 97.0065 256.726C97.0403 256.861 97.074 256.979 97.1078 257.097C98.2721 260.929 103.469 262.684 106.473 263.174C108.43 263.478 109.156 264.49 109.426 265.199Z" fill="#1E3C68"/>
<path d="M56.9305 201.446C57.6392 201.446 90.5269 207.624 95.9604 214.359C98.6771 217.718 99.0821 256.591 99.0821 256.591C99.0821 256.591 95.7242 260.76 88.4514 258.346C88.4514 258.346 83.1192 231.761 83.5242 223.693C83.6254 221.465 61.0478 223.372 56.9137 222.292C52.7795 221.229 42.6888 212.232 44.9162 207.843C47.1435 203.471 56.9305 201.446 56.9305 201.446Z" fill="#2B478B"/>
<path d="M54.8719 161.476C52.5096 161.273 50.0291 160.648 47.8861 159.956C45.2031 159.079 43.0432 157.813 44.4437 155.365C45.7262 153.103 47.8017 148.056 47.6667 143.887L52.6614 147.904L56.0531 150.639C56.0531 150.639 56.0363 152.242 55.665 155.078C55.5975 155.585 55.5132 156.142 55.4288 156.749C55.3613 157.222 55.5807 157.711 55.9856 157.965C56.0194 157.981 56.0363 157.998 56.07 158.015C57.7068 159.045 56.8462 161.627 54.8719 161.476Z" fill="#FFC864"/>
<path d="M56.0193 149.964C56.0193 149.964 56.1881 150.555 55.9012 152.715C52.8807 152.226 50.0627 149.812 50.0627 149.812C51.5983 149.39 52.1551 147.736 53.3026 147.888L56.0193 149.964Z" fill="#FFC864"/>
<path d="M58.8203 150.453C58.8203 150.453 47.2109 152.378 46.1141 145.136C45.0173 137.878 42.7899 133.236 50.1639 131.7C57.5379 130.164 59.3941 132.713 60.3559 135.043C61.284 137.372 61.8071 149.761 58.8203 150.453Z" fill="#FFC864"/>
<path d="M62.0436 131.835C62.5498 133.591 61.1998 135.718 58.9725 136.41C55.6483 137.456 56.3738 141.524 54.8889 141.474C53.3871 141.423 52.7797 139.127 51.4466 140.95C50.2992 142.503 52.3916 144.36 52.2566 145.221C52.0035 146.689 49.7086 149.694 47.633 149.542C45.5575 149.39 41.6765 139.532 42.4527 136.477C43.2289 133.422 46.3337 130.215 49.2698 129.759C52.2059 129.32 56.2895 130.586 57.2344 130.586C58.1625 130.603 61.7736 130.89 62.0436 131.835Z" fill="#2B478B"/>
<path d="M64.9287 199.269C64.7262 200.94 64.3887 202.088 63.8319 202.459C62.0938 203.624 59.799 205.058 57.2341 206.493C48.1389 211.557 35.7027 216.452 33.1716 207.894C30.2017 197.834 32.1591 178.946 35.0615 167.198C36.732 160.429 41.3893 153.34 44.511 153.357C49.8601 153.374 57.5378 154.775 60.6427 162.438C61.8407 165.409 63.6125 175.688 64.5068 185.107C65.0637 190.711 65.2999 196.011 64.9287 199.269Z" fill="white"/>
<path d="M43.9883 153.407L45.2032 150.673C45.2032 150.673 55.9352 151.77 57.7576 157.931C57.7576 157.948 49.4555 153.542 43.9883 153.407Z" fill="#DFEBFD"/>
<path d="M64.9287 199.269C64.7262 200.94 64.3887 202.088 63.8318 202.459C62.0938 203.624 59.7989 205.058 57.234 206.493C54.5679 204.873 49.067 200.99 47.7845 196.416C46.114 190.441 47.2783 183.081 47.2783 183.081L64.9287 199.269Z" fill="#DFEBFD"/>
<path d="M46.1646 162.623C46.1646 162.623 47.0926 188.331 48.5607 193.411C51.058 202.071 73.7706 205.16 73.7706 205.16C73.7706 205.16 75.1037 203.64 74.5131 201.125C74.5131 201.125 60.9294 190.407 60.5244 188.381C60.1194 186.339 63.4774 172.532 59.647 167.502C55.8165 162.455 48.7463 158.1 46.1646 162.623Z" fill="white"/>
<path d="M17.6811 264.963H17.6136C17.0061 264.946 16.5337 264.457 16.5843 263.883L20.6678 223.102L24.2283 223.423L18.3729 264.423C18.3223 264.727 18.0186 264.963 17.6811 264.963Z" fill="#77A4E5"/>
<path d="M38.6898 264.963H38.6223C38.0148 264.946 37.5423 264.457 37.593 263.883L41.6765 223.102L45.2369 223.423L39.3816 264.423C39.331 264.727 39.0273 264.963 38.6898 264.963Z" fill="#77A4E5"/>
<path d="M78.1415 264.963H78.209C78.8165 264.946 79.289 264.457 79.2384 263.883L75.1548 223.102L71.5944 223.423L77.4497 264.423C77.5003 264.727 77.7872 264.963 78.1415 264.963Z" fill="#77A4E5"/>
<path d="M18.8288 217.312L14.9478 183.25C14.4416 178.338 16.0783 173.527 23.1655 173.156L35.6186 172.396C43.0095 172.093 46.3337 178.237 47.2617 182.963L54.6526 220.401L18.8288 217.312Z" fill="#77A4E5"/>
<path d="M20.9211 223.693H76.2008C77.3145 223.693 78.2257 222.781 78.2257 221.667V219.186C78.2257 218.072 77.3145 217.16 76.2008 217.16H18.8962V221.667C18.8962 222.781 19.8074 223.693 20.9211 223.693Z" fill="#77A4E5"/>
<path d="M20.4655 223.693H53.117C53.9775 223.693 54.6863 222.984 54.6863 222.123V218.73C54.6863 217.869 53.9775 217.16 53.117 217.16H18.8962V222.123C18.8962 222.984 19.605 223.693 20.4655 223.693Z" fill="#77A4E5"/>
<path d="M106.439 113.858H87.3042C86.4268 113.858 85.7012 113.133 85.7012 112.255V93.772C85.7012 92.8943 86.4268 92.1685 87.3042 92.1685H106.439C107.317 92.1685 108.043 92.8943 108.043 93.772V112.255C108.043 113.133 107.317 113.858 106.439 113.858Z" fill="#77A4E5"/>
<path d="M105.613 112.914H88.1311C87.3211 112.914 86.6799 112.255 86.6799 111.462V94.5825C86.6799 93.7723 87.338 93.1309 88.1311 93.1309H105.613C106.423 93.1309 107.064 93.7892 107.064 94.5825V111.462C107.064 112.255 106.423 112.914 105.613 112.914Z" fill="#DFEBFD"/>
<path d="M96.8719 95.5612C97.1235 95.5612 97.3275 95.3571 97.3275 95.1054C97.3275 94.8537 97.1235 94.6497 96.8719 94.6497C96.6202 94.6497 96.4163 94.8537 96.4163 95.1054C96.4163 95.3571 96.6202 95.5612 96.8719 95.5612Z" fill="#77A4E5"/>
<path d="M100.955 96.1892C101.077 95.9692 100.998 95.6917 100.778 95.5694C100.558 95.4472 100.281 95.5264 100.158 95.7464C100.036 95.9664 100.115 96.2439 100.335 96.3662C100.555 96.4885 100.833 96.4092 100.955 96.1892Z" fill="#77A4E5"/>
<path d="M103.834 99.0684C104.045 98.932 104.106 98.6499 103.97 98.4384C103.833 98.2269 103.551 98.1661 103.34 98.3025C103.128 98.4389 103.068 98.721 103.204 98.9325C103.34 99.144 103.622 99.2049 103.834 99.0684Z" fill="#77A4E5"/>
<path d="M104.921 103.14C105.172 103.14 105.376 102.936 105.376 102.684C105.376 102.433 105.172 102.229 104.921 102.229C104.669 102.229 104.465 102.433 104.465 102.684C104.465 102.936 104.669 103.14 104.921 103.14Z" fill="#77A4E5"/>
<path d="M104.112 107.446C104.29 107.268 104.29 106.98 104.112 106.802C103.935 106.624 103.646 106.624 103.468 106.802C103.29 106.98 103.29 107.268 103.468 107.446C103.646 107.624 103.935 107.624 104.112 107.446Z" fill="#77A4E5"/>
<path d="M101.202 110.35C101.38 110.172 101.38 109.884 101.202 109.706C101.024 109.528 100.736 109.528 100.558 109.706C100.38 109.884 100.38 110.172 100.558 110.35C100.736 110.528 101.024 110.528 101.202 110.35Z" fill="#77A4E5"/>
<path d="M96.8719 111.664C97.1235 111.664 97.3275 111.46 97.3275 111.208C97.3275 110.957 97.1235 110.753 96.8719 110.753C96.6202 110.753 96.4163 110.957 96.4163 111.208C96.4163 111.46 96.6202 111.664 96.8719 111.664Z" fill="#77A4E5"/>
<path d="M93.4035 96.3926C93.6235 96.2703 93.7027 95.9928 93.5805 95.7728C93.4582 95.5528 93.1808 95.4736 92.9609 95.5959C92.7409 95.7181 92.6617 95.9956 92.784 96.2156C92.9062 96.4356 93.1836 96.5148 93.4035 96.3926Z" fill="#77A4E5"/>
<path d="M90.5204 98.9295C90.6568 98.718 90.5959 98.4359 90.3845 98.2995C90.1731 98.163 89.8911 98.2239 89.7547 98.4354C89.6183 98.6469 89.6791 98.929 89.8905 99.0654C90.102 99.2019 90.384 99.141 90.5204 98.9295Z" fill="#77A4E5"/>
<path d="M88.8058 103.14C89.0574 103.14 89.2614 102.936 89.2614 102.684C89.2614 102.433 89.0574 102.229 88.8058 102.229C88.5542 102.229 88.3502 102.433 88.3502 102.684C88.3502 102.936 88.5542 103.14 88.8058 103.14Z" fill="#77A4E5"/>
<path d="M90.2604 107.448C90.4383 107.27 90.4383 106.981 90.2604 106.803C90.0825 106.625 89.794 106.625 89.6161 106.803C89.4382 106.981 89.4382 107.27 89.6161 107.448C89.794 107.626 90.0825 107.626 90.2604 107.448Z" fill="#77A4E5"/>
<path d="M93.1562 110.356C93.3341 110.178 93.3341 109.889 93.1562 109.711C92.9783 109.533 92.6898 109.533 92.5119 109.711C92.3339 109.889 92.3339 110.178 92.5119 110.356C92.6898 110.534 92.9783 110.534 93.1562 110.356Z" fill="#77A4E5"/>
<path d="M97.2095 103.14C97.4611 103.14 97.6651 102.936 97.6651 102.684C97.6651 102.433 97.4611 102.229 97.2095 102.229C96.9579 102.229 96.7539 102.433 96.7539 102.684C96.7539 102.936 96.9579 103.14 97.2095 103.14Z" fill="#77A4E5"/>
<path d="M97.2582 96.9115H97.1417V102.701H97.2582V96.9115Z" fill="#77A4E5"/>
<path d="M100.103 100.113L97.0369 102.521L97.2661 102.813L100.332 100.405L100.103 100.113Z" fill="#77A4E5"/>
</svg>
