<svg width="16" height="16" viewBox="0 0 16 16" fill="none" xmlns="http://www.w3.org/2000/svg">
<path d="M11.4785 11.8793C11.2984 12.0593 11.0543 12.1604 10.7997 12.1604C10.5451 12.1604 10.3009 12.0593 10.1209 11.8793L8.00006 9.45529L5.87926 11.8785C5.79038 11.9688 5.6845 12.0407 5.56772 12.0899C5.45094 12.1391 5.32557 12.1647 5.19884 12.1652C5.07211 12.1657 4.94654 12.1411 4.82936 12.0929C4.71218 12.0446 4.60572 11.9736 4.51611 11.884C4.4265 11.7944 4.35552 11.688 4.30726 11.5708C4.259 11.4536 4.23442 11.328 4.23494 11.2013C4.23545 11.0746 4.26106 10.9492 4.31027 10.8324C4.35948 10.7156 4.43132 10.6098 4.52166 10.5209L6.72806 8.00089L4.52086 5.47929C4.43052 5.39041 4.35868 5.28453 4.30947 5.16775C4.26026 5.05097 4.23465 4.9256 4.23414 4.79887C4.23362 4.67214 4.2582 4.54657 4.30646 4.42939C4.35472 4.31221 4.4257 4.20575 4.51531 4.11614C4.60492 4.02653 4.71138 3.95555 4.82856 3.90729C4.94574 3.85903 5.07131 3.83445 5.19804 3.83497C5.32477 3.83548 5.45014 3.86109 5.56692 3.9103C5.6837 3.95951 5.78958 4.03135 5.87846 4.12169L8.00006 6.54649L10.1209 4.12169C10.2097 4.03135 10.3156 3.95951 10.4324 3.9103C10.5492 3.86109 10.6746 3.83548 10.8013 3.83497C10.928 3.83445 11.0536 3.85903 11.1708 3.90729C11.2879 3.95555 11.3944 4.02653 11.484 4.11614C11.5736 4.20575 11.6446 4.31221 11.6929 4.42939C11.7411 4.54657 11.7657 4.67214 11.7652 4.79887C11.7647 4.9256 11.7391 5.05097 11.6899 5.16775C11.6406 5.28453 11.5688 5.39041 11.4785 5.47929L9.27206 8.00089L11.4785 10.5209C11.5677 10.61 11.6385 10.7159 11.6868 10.8325C11.7351 10.949 11.76 11.0739 11.76 11.2001C11.76 11.3262 11.7351 11.4512 11.6868 11.5677C11.6385 11.6843 11.5677 11.7901 11.4785 11.8793Z" fill="#FF776F"/>
</svg>
